<svg fill="none" height="300" viewBox="0 0 300 300" width="300" xmlns="http://www.w3.org/2000/svg" xmlns:xlink="http://www.w3.org/1999/xlink"><linearGradient id="a"><stop offset="0" stop-color="#b44ebf"/><stop offset="1" stop-color="#6b2372"/></linearGradient><linearGradient id="b" gradientUnits="userSpaceOnUse" x1="164.042" x2="264.916" xlink:href="#a" y1="185.054" y2="185.054"/><linearGradient id="c" gradientUnits="userSpaceOnUse" x1="57.6338" x2="252.09" xlink:href="#a" y1="81.518" y2="81.518"/><linearGradient id="d" gradientUnits="userSpaceOnUse" x1="44.8076" x2="145.681" xlink:href="#a" y1="185.054" y2="185.054"/><clipPath id="e"><path d="m0 0h300v300h-300z"/></clipPath><g clip-path="url(#e)"><path d="m169.497 268.466 93.595-54.039c.554-.32 1.014-.78 1.334-1.333.32-.554.488-1.182.489-1.821v-108.064c.013-.642-.15-1.275-.471-1.831-.322-.557-.789-1.014-1.352-1.323-.552-.3262-1.181-.5009-1.823-.5064-.638.0017-1.263.1768-1.809.5064l-93.595 54.025c-.553.32-1.012.78-1.332 1.334-.319.553-.489 1.181-.491 1.82v108.078c.002.637.171 1.263.491 1.815.319.552.778 1.01 1.33 1.329.552.32 1.178.488 1.815.49.638.002 1.265-.164 1.819-.48z" fill="url(#b)"/><path d="m156.678 23.807c-.553-.3159-1.179-.4821-1.816-.4821s-1.263.1662-1.816.4821l-93.595 53.9812c-.5527.3205-1.0116.7805-1.3305 1.3341-.3189.5535-.4867 1.1812-.4867 1.82s.1678 1.2665.4867 1.82c.3189.5536.7778 1.0136 1.3305 1.3341l93.595 54.0386c.557.314 1.185.478 1.823.478.639 0 1.267-.164 1.823-.478l93.581-54.0386c.553-.3205 1.012-.7805 1.331-1.3341.318-.5535.486-1.1812.486-1.82s-.168-1.2665-.486-1.82c-.319-.5536-.778-1.0136-1.331-1.3341z" fill="url(#c)"/><path d="m46.6314 214.427 93.5956 54.039c.553.316 1.18.482 1.818.48.637-.002 1.263-.17 1.815-.49.552-.319 1.011-.777 1.33-1.329.32-.552.489-1.178.491-1.815v-108.078c-.002-.639-.171-1.267-.491-1.82-.32-.554-.779-1.014-1.332-1.334l-93.5808-54.025c-.5472-.3263-1.1714-.5011-1.8085-.5064-.6462.0057-1.2795.1802-1.8373.5064-.563.309-1.0306.766-1.352 1.323-.3214.556-.4842 1.189-.471 1.831v108.064c.0006.639.1692 1.267.4892 1.821.32.553.78 1.013 1.3338 1.333z" fill="url(#d)"/><path d="m72.1388 5.44683c0-.38372-.1524-.75171-.4237-1.02304-.2714-.27134-.6394-.42379-1.0232-.42379h-54.7768c-4.2209 0-8.26904 1.67678-11.2537 4.66144-2.98467 2.98466-4.6614 7.03276-4.6614 11.25366v54.7769c0 .3838.152366.7518.423699 1.0231.271333.2714.639411.4238 1.023131.4238h11.68467c.3837 0 .7517-.1524 1.023-.4238.2714-.2713.4238-.6393.4238-1.0231v-54.6668c0-.3838.1524-.7518.4237-1.0231.2714-.2713.6394-.4238 1.0232-.4238h54.6667c.3838 0 .7518-.1524 1.0232-.4238.2713-.2713.4237-.6393.4237-1.023z" fill="#b44ebf"/><path d="m227.876 5.44683c0-.38372.152-.75171.424-1.02304.271-.27134.639-.42379 1.023-.42379h54.762c4.221 0 8.269 1.67678 11.254 4.66144 2.984 2.98466 4.661 7.03276 4.661 11.25366v54.7769c0 .3838-.152.7518-.424 1.0231-.271.2714-.639.4238-1.022.4238h-11.685c-.384 0-.752-.1524-1.023-.4238-.272-.2713-.424-.6393-.424-1.0231v-54.6668c0-.3838-.152-.7518-.424-1.0231-.271-.2713-.639-.4238-1.023-.4238h-54.667c-.384 0-.751-.1524-1.023-.4238-.271-.2713-.424-.6393-.424-1.023z" fill="#6b2372"/><path d="m72.1388 293.988c0 .384-.1524.752-.4237 1.023-.2714.271-.6394.424-1.0232.424h-54.7768c-4.2209 0-8.26904-1.677-11.2537-4.662-2.98467-2.984-4.6614-7.032-4.6614-11.253v-54.777c0-.384.152366-.752.423699-1.023.271333-.272.639411-.424 1.023131-.424h11.68467c.3837 0 .7517.152 1.023.424.2714.271.4238.639.4238 1.023v54.667c0 .383.1524.751.4237 1.023.2714.271.6394.423 1.0232.423h54.6667c.3838 0 .7518.153 1.0232.424.2713.271.4237.639.4237 1.023z" fill="#6b2372"/><path d="m227.876 293.988c0 .384.152.752.424 1.023.271.271.639.424 1.023.424h54.762c4.221 0 8.269-1.677 11.254-4.662 2.984-2.984 4.661-7.032 4.661-11.253v-54.777c0-.384-.152-.752-.424-1.023-.271-.272-.639-.424-1.022-.424h-11.685c-.384 0-.752.152-1.023.424-.272.271-.424.639-.424 1.023v54.667c0 .383-.152.751-.424 1.023-.271.271-.639.423-1.023.423h-54.667c-.384 0-.751.153-1.023.424-.271.271-.424.639-.424 1.023z" fill="#b44ebf"/></g></svg>